HIERARCHY
ROOT Hips
{
	OFFSET 0.000000 0.000000 0.000000 
	CHANNELS 6 Xposition Yposition Zposition Yrotation Zrotation Xrotation 
	JOINT Lumbar
	{
		OFFSET 0.000000 0.000000 0.000000 
		CHANNELS 3 Zrotation Xrotation Yrotation
		JOINT Neck
		{
			OFFSET 0.000000 0.445665 0.000000 
			CHANNELS 3 Zrotation Xrotation Yrotation
			End Site
			{
				OFFSET 0.000000 0.227535 0.000000 
			}
		}
		JOINT RightShoulder
		{
			OFFSET 0.019635 0.377685 0.194865 
			CHANNELS 3 Zrotation Xrotation Yrotation
			JOINT RightElbow
			{
				OFFSET 0.000000 -0.243375 0.000000 
				CHANNELS 2 Zrotation Yrotation
				JOINT RightWrist
				{
					OFFSET 0.000000 -0.264825 0.000000 
					CHANNELS 2 Zrotation Xrotation
					End Site
					{
						OFFSET 0.006600 -0.176220 0.000990 
					}
				}
			}
		}
		JOINT LeftShoulder
		{
			OFFSET 0.019635 0.377685 -0.194865 
			CHANNELS 3 Zrotation Xrotation Yrotation
			JOINT LeftElbow
			{
				OFFSET 0.000000 -0.243375 0.000000 
				CHANNELS 2 Zrotation Yrotation
				JOINT LeftWrist
				{
					OFFSET 0.000000 -0.264825 0.000000 
					CHANNELS 2 Zrotation Xrotation
					End Site
					{
						OFFSET 0.006600 -0.176220 -0.000990 
					}
				}
			}
		}
	}
	JOINT RightHip
	{
		OFFSET 0.052140 -0.069960 0.075570 
		CHANNELS 3 Zrotation Xrotation Yrotation
		JOINT RightKnee
		{
			OFFSET 0.000000 -0.402270 0.000000 
			CHANNELS 1 Zrotation
			JOINT RightAnkle
			{
				OFFSET 0.000000 -0.404085 0.000000 
				CHANNELS 3 Zrotation Xrotation Yrotation
				End Site
				{
					OFFSET 0.204105 -0.089430 0.008415 
				}
			}
		}
	}
	JOINT LeftHip
	{
		OFFSET 0.052140 -0.069960 -0.075570 
		CHANNELS 3 Zrotation Xrotation Yrotation
		JOINT LeftKnee
		{
			OFFSET 0.000000 -0.402270 0.000000 
			CHANNELS 1 Zrotation
			JOINT LeftAnkle
			{
				OFFSET 0.000000 -0.404085 0.000000 
				CHANNELS 3 Zrotation Xrotation Yrotation
				End Site
				{
					OFFSET 0.204105 -0.089430 -0.008415 
				}
			}
		}
	}
}
MOTION
Frames: 25
Frame Time: 0.02
0.02612 -0.03112 0.22471 10.90207 -19.72375 -9.11516 39.60714 0.79822 5.58391 -37.6484 2.05077 -2.11989 -29.61175 -11.65918 -11.14008 28.78565 81.89781 -0.31274 -8.02152 -21.89331 122.75842 -26.79378 6.00155 -63.58087 -13.19096 -2.9048 34.48552 13.69368 -46.69602 -23.16149 13.12161 25.18049 9.52757 51.04651 2.1722 22.00003 -35.58095 -8.28556 3.86081 4.20497
0.02534 -0.03102 0.22458 10.72499 -19.75225 -9.19788 39.70182 0.85345 5.44292 -37.98606 2.2016 -2.11989 -29.98321 -11.12451 -11.84041 29.11013 81.78421 -0.81669 -8.89114 -20.76662 122.71977 -28.03418 6.13043 -62.25569 -13.9476 -2.49918 34.63685 13.69368 -46.69601 -23.31434 12.69546 25.4302 9.6658 51.12715 2.11281 21.59045 -35.4004 -8.34369 3.8904 4.22484
0.02474 -0.03079 0.22467 10.49594 -19.83657 -9.31388 39.85203 0.88159 5.3517 -38.30689 2.53287 -2.11989 -29.99818 -10.60723 -12.70841 29.10641 81.71204 -1.26814 -9.52409 -19.61225 122.80564 -29.42713 6.28598 -60.91323 -14.53476 -2.09209 34.87763 13.69368 -46.69602 -23.55972 12.11519 25.77155 9.85985 51.26477 2.01965 20.93454 -35.15225 -8.42503 3.93745 4.25507
0.02404 -0.03064 0.22464 10.29425 -19.89261 -9.4117 39.97055 0.9247 5.24268 -38.62873 2.78046 -2.11989 -30.17118 -10.10664 -13.44887 29.25688 81.62155 -1.72749 -10.24319 -18.49833 122.82708 -30.71047 6.42297 -59.63633 -15.18168 -1.70677 35.07123 13.69368 -46.69602 -23.7543 11.6191 26.06548 10.02477 51.37217 1.94604 20.41693 -34.93948 -8.49319 3.97506 4.27955
0.02341 -0.03043 0.22468 10.07533 -19.96235 -9.52349 40.11721 0.95543 5.11375 -38.97983 3.04369 -2.11989 -30.36277 -9.50284 -14.41084 29.39492 81.52613 -2.26487 -11.07201 -17.25152 122.8836 -32.13778 6.5915 -58.12198 -15.91687 -1.22648 35.29559 13.69368 -46.69602 -23.9899 11.06 26.38442 10.20568 51.49959 1.85805 19.79359 -34.70831 -8.57202 4.01871 4.30822
0.02269 -0.03029 0.22462 9.88104 -20.01638 -9.61393 40.21832 1.0062 5.03734 -39.26525 3.31441 -2.11989 -30.42943 -9.11824 -14.95107 29.47828 81.45171 -2.62483 -11.61116 -16.28111 122.89608 -33.31108 6.69978 -57.09075 -16.42372 -0.94379 35.47608 13.69368 -46.69602 -24.16051 10.59693 26.67219 10.36625 51.59829 1.79008 19.32792 -34.49887 -8.63439 4.0541 4.33075
0.02166 -0.03037 0.22424 9.7609 -20.01232 -9.63413 40.1777 1.11592 5.10139 -39.37664 3.55555 -2.11989 -30.24832 -9.33053 -14.26532 29.48138 81.42766 -2.48694 -11.37726 -16.07656 122.7542 -33.74925 6.62538 -57.46105 -16.32033 -1.23359 35.51128 13.69368 -46.69602 -24.12835 10.43548 26.85875 10.46008 51.60229 1.79339 19.38185 -34.36671 -8.64478 4.06186 4.33325
0.02054 -0.03053 0.22374 9.66856 -19.99059 -9.63208 40.08975 1.24741 5.21525 -39.42172 3.79793 -2.11989 -29.95156 -9.76335 -13.15252 29.44124 81.42334 -2.17446 -10.86271 -16.1538 122.56399 -33.9289 6.49051 -58.30718 -15.99442 -1.71856 35.4992 13.69368 -46.69602 -24.02708 10.3768 27.00953 10.53101 51.57547 1.81623 19.59815 -34.25844 -8.63804 4.06084 4.32934
0.01946 -0.03064 0.22327 9.56804 -19.97734 -9.6421 40.02466 1.37109 5.30131 -39.49502 4.04235 -2.11989 -29.70138 -10.09788 -12.24724 29.42572 81.40873 -1.95364 -10.49381 -16.10714 122.39685 -34.22926 6.38896 -58.89274 -15.78187 -2.09802 35.50973 13.69368 -46.69602 -23.95738 10.27223 27.17175 10.61037 51.56337 1.82463 19.72372 -34.1386 -8.63978 4.06421 4.32874
0.01837 -0.03077 0.22289 9.44736 -19.96383 -9.64505 39.95522 1.48512 5.41076 -39.57612 4.28189 -2.11989 -29.46499 -10.42524 -11.28984 29.37772 81.4009 -1.67893 -10.0404 -16.04257 122.2287 -34.52387 6.26372 -59.66111 -15.5123 -2.54827 35.51859 13.69368 -46.69602 -23.89053 10.15831 27.35701 10.69983 51.55005 1.85522 19.91165 -34.01948 -8.63934 4.06647 4.32683
0.01729 -0.03089 0.2223 9.37537 -19.94634 -9.65698 39.88365 1.62466 5.48288 -39.62509 4.52997 -2.11989 -29.1758 -10.81919 -10.33902 29.39161 81.38337 -1.47601 -9.69962 -16.08152 122.05047 -34.76341 6.17319 -60.16664 -15.31053 -2.89747 35.51865 13.69368 -46.69602 -23.79986 10.09089 27.48523 10.76233 51.53152 1.84487 20.01223 -33.90535 -8.63911 4.06876 4.32597
0.01627 -0.03096 0.22122 9.43626 -19.91831 -9.69917 39.81069 1.83058 5.43777 -39.60446 4.79611 -2.11989 -28.78155 -11.34714 -9.49499 29.58613 81.33176 -1.51037 -9.73626 -16.34804 121.84773 -34.94812 6.19189 -59.78917 -15.35258 -2.92053 35.50404 13.69369 -46.69602 -23.66157 10.12241 27.45884 10.75363 51.50297 1.71501 19.82681 -33.7999 -8.64331 4.07292 4.32956
0.01526 -0.03101 0.21994 9.54439 -19.88719 -9.75092 39.7382 2.06132 5.3536 -39.55328 5.07083 -2.11989 -28.33774 -11.93352 -8.67404 29.84631 81.26998 -1.62378 -9.8973 -16.70725 121.63749 -35.08034 6.24762 -59.13823 -15.47075 -2.83533 35.48191 13.69369 -46.69603 -23.50093 10.19861 27.377 10.71878 51.47041 1.5439 19.55055 -33.69893 -8.64821 4.07737 4.33435
0.01425 -0.03107 0.21874 9.62784 -19.85988 -9.79817 39.66997 2.28004 5.28823 -39.51433 5.34414 -2.1199 -27.91013 -12.4905 -7.85249 30.07851 81.21424 -1.70377 -10.0042 -17.01719 121.43563 -35.21232 6.28728 -58.63966 -15.55367 -2.79897 35.46424 13.69369 -46.69604 -23.3493 10.2582 27.32382 10.69707 51.44166 1.39276 19.31975 -33.59563 -8.65297 4.08188 4.33857
0.01322 -0.03113 0.21757 9.72617 -19.82237 -9.84554 39.58154 2.50271 5.2198 -39.48026 5.6072 -2.1199 -27.50448 -13.06766 -6.97589 30.30075 81.15315 -1.76756 -10.09178 -17.367 121.21114 -35.43285 6.32202 -58.04008 -15.63223 -2.76988 35.44131 13.69369 -46.69605 -23.20037 10.30635 27.25447 10.66911 51.40406 1.23651 19.07472 -33.49398 -8.6566 4.08537 4.34274
0.01224 -0.03118 0.21629 9.80389 -19.80494 -9.89494 39.53551 2.72265 5.14832 -39.42937 5.89347 -2.1199 -27.04343 -13.61322 -6.22312 30.56041 81.10062 -1.88552 -10.25193 -17.65227 121.03268 -35.46514 6.37612 -57.5785 -15.73998 -2.69873 35.42722 13.69369 -46.69605 -23.04113 10.38676 27.20657 10.64851 51.38363 1.08163 18.8383 -33.39012 -8.66272 4.09103 4.3473
0.01134 -0.03122 0.21476 9.81741 -19.84933 -9.95024 39.61005 2.92992 5.07306 -39.34195 6.24232 -2.1199 -26.43807 -14.06043 -5.82459 30.90396 81.07338 -2.13985 -10.59123 -17.73394 120.983 -34.94567 6.47873 -57.57341 -15.91845 -2.52527 35.44781 13.69369 -46.69604 -22.86181 10.55236 27.2272 10.65238 51.41779 0.93389 18.624 -33.27513 -8.67777 4.10404 4.35334
0.01048 -0.03125 0.21314 9.80773 -19.91311 -10.00694 39.72688 3.13316 4.99655 -39.23846 6.61396 -2.1199 -25.78016 -14.47176 -5.54888 31.28378 81.05519 -2.44555 -10.99885 -17.74652 120.98034 -34.24803 6.59904 -57.71268 -16.12305 -2.31454 35.47636 13.69369 -46.69603 -22.67297 10.74696 27.2722 10.66506 51.46847 0.79004 18.42454 -33.15844 -8.69502 4.11904 4.35965
0.0096 -0.03128 0.21156 9.80567 -19.96438 -10.06129 39.8221 3.33774 4.92383 -39.14121 6.97489 -2.1199 -25.14887 -14.89671 -5.20707 31.64946 81.03326 -2.72482 -11.37076 -17.79114 120.95628 -33.66287 6.70889 -57.77787 -16.31131 -2.12823 35.49578 13.69369 -46.69603 -22.4866 10.92329 27.30915 10.67537 51.50756 0.64885 18.23394 -33.04489 -8.70981 4.13221 4.36536
0.00871 -0.03131 0.20998 9.81728 -20.03104 -10.12287 39.92706 3.54593 4.83694 -39.04775 7.33809 -2.1199 -24.50323 -15.33659 -4.90838 32.0075 81.00927 -3.02044 -11.76703 -17.83663 120.93138 -32.94347 6.83033 -57.86954 -16.52152 -1.90686 35.53759 13.69369 -46.69602 -22.30614 11.12314 27.3318 10.67806 51.56333 0.48787 17.97697 -32.9212 -8.73054 4.14918 4.37303
0.00787 -0.03135 0.20837 9.79469 -20.07044 -10.16999 40.0222 3.74452 4.77878 -38.94249 7.70123 -2.1199 -23.87689 -15.7343 -4.54983 32.38924 80.99204 -3.29235 -12.12653 -17.86245 120.92034 -32.4611 6.93118 -57.94392 -16.69051 -1.75082 35.53547 13.69368 -46.69601 -22.11279 11.27979 27.39023 10.6988 51.58884 0.36916 17.85968 -32.81856 -8.73974 4.15885 4.37677
0.00718 -0.0314 0.20665 9.67963 -20.02832 -10.17331 40.07628 3.92407 4.80891 -38.81284 8.06361 -2.1199 -23.30742 -16.03854 -3.98804 32.82708 80.98948 -3.4934 -12.37354 -17.85185 120.92889 -32.68396 6.97247 -57.9356 -16.74587 -1.78608 35.40393 13.69369 -46.69602 -21.87443 11.31397 27.54617 10.76942 51.52241 0.3702 18.1533 -32.77123 -8.71377 4.14654 4.36868
0.00657 -0.03146 0.20489 9.53146 -19.95836 -10.16257 40.11962 4.09269 4.86664 -38.67124 8.4239 -2.1199 -22.76173 -16.2984 -3.36355 33.28726 80.99373 -3.66712 -12.57953 -17.82323 120.95097 -33.14902 6.99202 -57.90642 -16.75747 -1.88822 35.229 13.69369 -46.69603 -21.62568 11.30283 27.73661 10.85758 51.4257 0.41321 18.58247 -32.74576 -8.67661 4.12704 4.35677
0.00593 -0.03151 0.20317 9.40058 -19.90222 -10.16057 40.17039 4.26198 4.90612 -38.53246 8.78211 -2.1199 -22.21088 -16.56922 -2.77236 33.73722 80.99612 -3.84826 -12.79994 -17.80162 120.97183 -33.5007 7.02024 -57.88756 -16.78418 -1.95956 35.07812 13.69369 -46.69603 -21.38957 11.30947 27.90862 10.93646 51.34583 0.43444 18.93057 -32.71228 -8.64647 4.11173 4.34722
0.00523 -0.03158 0.20137 9.25925 -19.842 -10.1489 40.21229 4.44952 4.9693 -38.4041 9.15491 -2.1199 -21.63218 -16.87859 -2.16354 34.18883 80.99382 -4.05229 -13.04063 -17.78234 120.97427 -33.86614 7.054 -57.86894 -16.83114 -2.03274 34.90956 13.69369 -46.69604 -21.11989 11.32853 28.09346 11.02135 51.25386 0.46674 19.35953 -32.6704 -8.60841 4.09265 4.33512
